<?xml version="1.0"?>
<svg xmlns="http://www.w3.org/2000/svg" xmlns:xlink="http://www.w3.org/1999/xlink" xmlns:svgjs="http://svgjs.com/svgjs" version="1.1" width="512" height="512" x="0" y="0" viewBox="0 0 512 512" style="enable-background:new 0 0 512 512" xml:space="preserve" class=""><g>
<circle xmlns="http://www.w3.org/2000/svg" style="" cx="256" cy="256" r="256" fill="#d9cb7d" data-original="#5e3c16" class=""/>
<path xmlns="http://www.w3.org/2000/svg" style="" d="M511.222,235.949L407.631,132.358H360.41v43.693l24.199,24.199H360.41v39.592L252.925,132.358h-52.6  l-95.956,246.361l132.576,132.577C243.237,511.757,249.59,512,256,512c141.385,0,256-114.615,256-256  C512,249.251,511.735,242.566,511.222,235.949z" fill="#c5b164" data-original="#472e11" class=""/>
<g xmlns="http://www.w3.org/2000/svg">
	<path style="" d="M351.57,378.719h-54.112l-21.51-55.961h-98.477l-20.334,55.961h-52.768l95.956-246.361h52.599   L351.57,378.719z M259.983,281.249l-33.946-91.419l-33.274,91.419H259.983z" fill="#fffbe8" data-original="#df871e" class=""/>
	<path style="" d="M360.41,176.051v-43.693h47.221v43.693H360.41z M360.41,378.719V200.25h47.221v178.468H360.41z" fill="#fffbe8" data-original="#df871e" class=""/>
</g>
<g xmlns="http://www.w3.org/2000/svg">
</g>
<g xmlns="http://www.w3.org/2000/svg">
</g>
<g xmlns="http://www.w3.org/2000/svg">
</g>
<g xmlns="http://www.w3.org/2000/svg">
</g>
<g xmlns="http://www.w3.org/2000/svg">
</g>
<g xmlns="http://www.w3.org/2000/svg">
</g>
<g xmlns="http://www.w3.org/2000/svg">
</g>
<g xmlns="http://www.w3.org/2000/svg">
</g>
<g xmlns="http://www.w3.org/2000/svg">
</g>
<g xmlns="http://www.w3.org/2000/svg">
</g>
<g xmlns="http://www.w3.org/2000/svg">
</g>
<g xmlns="http://www.w3.org/2000/svg">
</g>
<g xmlns="http://www.w3.org/2000/svg">
</g>
<g xmlns="http://www.w3.org/2000/svg">
</g>
<g xmlns="http://www.w3.org/2000/svg">
</g>
</g></svg>
