<?xml version="1.0" encoding="utf-8"?>
<!-- Generator: Adobe Illustrator 24.3.0, SVG Export Plug-In . SVG Version: 6.00 Build 0)  -->
<svg version="1.1" id="Layer_1" xmlns="http://www.w3.org/2000/svg" xmlns:xlink="http://www.w3.org/1999/xlink" x="0px" y="0px"
	 viewBox="0 0 2500 2034" style="enable-background:new 0 0 2500 2034;" xml:space="preserve">
<style type="text/css">
	.st0{fill:#FFFFFF;}
</style>
<path class="st0" d="M2492.6,1132.7c-14.7-103.2-50.4-201.1-106.3-290.9c-48.7-78.4-111.2-148.1-185.9-207.3l0.2-0.2L1417,32.4
	c-0.6-0.5-1.2-1-1.8-1.4C1389.2,11,1353.9,0,1315.9,0c-38,0-74.7,11-103.2,31c-30.6,21.4-48.2,49.8-49.4,80
	c-1.1,28.2,12.3,55.3,38,76.5c50.4,39.8,100.8,80.5,151.2,121.2c48.9,39.5,99.3,80.2,149.5,119.9l-959.9-0.7
	c-109.8,0-184.5,51.5-199.9,137.9c-6.8,37.8,5.2,79.4,31.8,111.2c28.3,33.7,69.3,52.4,115.6,52.4l73.2,0c101.1,0,202.6-0.2,304-0.5
	l96.7-0.2L92.3,1373.2l-3.5,2.5c-48.7,37.3-80.5,89.6-87.4,143.5c-5.2,40.8,4.3,78.1,27.5,107.9c27.7,35.5,70.9,55,121.7,55
	c49.9,0,100.9-18.9,143.5-53.4l470.5-385c-2,18.8-4.5,46.4-4.2,66.4c0.5,31.7,10.7,95.3,26.8,146.9
	c33.3,106.1,89.4,203.2,166.6,288.5c80.4,88.7,178.4,159,291.1,209c119.2,52.7,247.3,79.5,380.8,79.5h1.2
	c133.9-0.3,262.4-27.5,382-80.8c112.9-50.6,210.8-121.2,290.9-209.9c77.2-85.7,133.2-182.9,166.4-289c16.4-52.5,27-106.6,31.4-161.5
	C2501.9,1239.9,2500.1,1186,2492.6,1132.7L2492.6,1132.7z M1635.6,1641.3c-294.2,0-532.8-213.4-532.8-476.7
	c0-263.3,238.6-476.7,532.8-476.7c294.2,0,532.8,213.4,532.8,476.7C2168.4,1427.8,1929.8,1641.3,1635.6,1641.3z M1942.9,1122.6
	c4.3,78.6-27,151.6-82.2,205.6c-56.1,55-136.1,89.6-225.5,89.6c-89.4,0-169.5-34.6-225.5-89.6c-55.1-54-86.4-127-82.1-205.5
	c4.2-76.3,41.5-143.7,97.5-191.4c55.1-46.9,129.2-75.5,210.1-75.5c80.9,0,154.9,28.6,210.1,75.5
	C1901.4,979,1938.6,1046.3,1942.9,1122.6L1942.9,1122.6z"/>
</svg>
