<?xml version="1.0" encoding="utf-8"?>
<!-- Generator: Adobe Illustrator 24.3.0, SVG Export Plug-In . SVG Version: 6.00 Build 0)  -->
<svg version="1.1" id="Layer_1" xmlns:svgjs="http://svgjs.com/svgjs"
	 xmlns="http://www.w3.org/2000/svg" xmlns:xlink="http://www.w3.org/1999/xlink" x="0px" y="0px" viewBox="0 0 512 512"
	 style="enable-background:new 0 0 512 512;" xml:space="preserve">
<style type="text/css">
	.st0{fill:#F2D949;}
	.st1{fill:#C5B164;}
	.st2{fill:#D9CB7D;}
	.st3{fill:#FFFBE8;}
</style>
<g>
	<path class="st0" d="M512,256c0,82.3-38.9,155.6-99.2,202.4C369.5,492,315.1,512,256,512s-113.5-20-156.8-53.6
		C38.9,411.6,0,338.3,0,256C0,114.6,114.6,0,256,0S512,114.6,512,256z"/>
	<path class="st1" d="M442,119.5l-29.2,338.9C369.5,492,315.1,512,256,512s-113.5-20-156.8-53.6L70,119.5H442z"/>
	<polygon class="st2" points="256,151.3 256,505.3 378.3,470.8 405.5,151.3 	"/>
	<polygon class="st3" points="364,289.8 275.9,289.8 368,242.9 372,195.7 140,195.7 144.1,243.8 237.2,243.8 147.8,288.5 152,337.7 
		152,337.7 311.4,337.7 306.2,396.4 256,410 203.8,395.3 202.4,358.8 153.8,358.8 159.9,430.8 256,458 352.1,430.8 364,289.8 	"/>
</g>
</svg>
