<?xml version="1.0" encoding="utf-8"?>
<!-- Generator: Adobe Illustrator 24.3.0, SVG Export Plug-In . SVG Version: 6.00 Build 0)  -->
<svg version="1.1" id="Layer_1" xmlns:svgjs="http://svgjs.com/svgjs"
	 xmlns="http://www.w3.org/2000/svg" xmlns:xlink="http://www.w3.org/1999/xlink" x="0px" y="0px" viewBox="0 0 512 512"
	 style="enable-background:new 0 0 512 512;" xml:space="preserve">
<style type="text/css">
	.st0{fill:#F2D949;}
	.st1{fill:#C5B164;}
	.st2{fill:#D9CB7D;}
	.st3{fill:#FFFBE8;}
</style>
<g>
	<path class="st0" d="M512,256c0,82.3-38.9,155.6-99.2,202.4C369.5,492,315.1,512,256,512c-58.5,0-112.5-19.6-155.6-52.7
		C39.4,412.5,0,338.9,0,256C0,114.6,114.6,0,256,0S512,114.6,512,256z"/>
	<path class="st1" d="M442,119.5l-29.2,338.9C369.5,492,315.1,512,256,512c-58.5,0-112.5-19.6-155.6-52.7L71.1,119.5H442z"/>
	<polygon class="st2" points="256.5,151.2 256.5,504.2 378.5,469.8 405.7,151.2 	"/>
	<polygon class="st3" points="140.9,195.5 152.9,337.1 311.8,337.1 306.6,395.6 256.5,409.1 204.5,394.5 203.2,358.1 154.6,358.1 
		160.7,429.9 256.5,457 352.4,429.9 364.3,289.3 196.9,289.3 192.8,243.5 192.8,243.5 368.2,242.5 372.2,195.5 	"/>
</g>
</svg>
