<?xml version="1.0" encoding="utf-8"?>
<!-- Generator: Adobe Illustrator 24.3.0, SVG Export Plug-In . SVG Version: 6.00 Build 0)  -->
<svg version="1.1" xmlns="http://www.w3.org/2000/svg" xmlns:xlink="http://www.w3.org/1999/xlink" x="0px" y="0px"
	 viewBox="0 0 448 512" style="enable-background:new 0 0 448 512;" xml:space="preserve">
<style type="text/css">
	.st0{fill:#C5B164;}
	.st1{fill:#FFFFFF;}
	.st2{fill:#D9CB7D;}
</style>
<g id="Layer_1" focusable="false">
	<g id="XMLID_1_">
		<g>
			<path class="st0" d="M448,32v448H0V32H448z M368,290l32.8-21c-13.8-24.4-33-33.7-59.8-33.7c-37.5,0-61.6,24-61.6,55.6
				c0,34.3,20.1,50.6,50.5,63.5l10.5,4.5c19.3,8.5,30.7,13.6,30.7,28c0,12.1-11.2,20.8-28.6,20.8c-20.7,0-32.5-10.9-41.5-25.6
				l-34.3,19.8c12.3,24.4,37.6,43,76.7,43c39.9,0,69.7-20.8,69.7-58.6c0-35.2-20.1-50.9-55.9-66.2l-10.5-4.5
				c-18.1-7.9-25.9-13-25.9-25.6c0-10.2,7.8-18,20.1-18C353,272,360.8,277.1,368,290z M243.8,381.4V237.7h-42.1v143.1
				c0,21.1-8.8,26.5-22.6,26.5c-14.5,0-20.5-9.9-27.1-21.6l-34.3,20.7c10,21.1,29.5,38.5,63.2,38.5
				C218.2,444.9,243.8,425,243.8,381.4z"/>
			<path class="st1" d="M400.8,269L368,290c-7.2-12.9-15-18-27.1-18c-12.3,0-20.1,7.8-20.1,18c0,12.6,7.8,17.7,25.9,25.6l10.5,4.5
				c35.8,15.3,55.9,31,55.9,66.2c0,37.8-29.8,58.6-69.7,58.6c-39.1,0-64.4-18.6-76.7-43l34.3-19.8c9,14.7,20.8,25.6,41.5,25.6
				c17.4,0,28.6-8.7,28.6-20.8c0-14.4-11.4-19.5-30.7-28l-10.5-4.5c-30.4-12.9-50.5-29.2-50.5-63.5c0-31.6,24.1-55.6,61.6-55.6
				C367.8,235.3,387,244.6,400.8,269z"/>
			<path class="st1" d="M243.8,237.7v143.7c0,43.6-25.6,63.5-62.9,63.5c-33.7,0-53.2-17.4-63.2-38.5l34.3-20.7
				c6.6,11.7,12.6,21.6,27.1,21.6c13.8,0,22.6-5.4,22.6-26.5V237.7H243.8z"/>
		</g>
		<g>
		</g>
	</g>
	<rect x="224" y="62" class="st2" width="196" height="390"/>
</g>
<g id="Layer_2">
	<path class="st1" d="M244.1,381.4c0,43.6-25.6,63.5-62.9,63.5c-33.7,0-53.2-17.4-63.2-38.5l34.3-20.7c6.6,11.7,12.6,21.6,27.1,21.6
		c13.8,0,22.6-5.4,22.6-26.5V237.7h42.1V381.4L244.1,381.4z"/>
	<path class="st1" d="M343.7,444.9c-39.1,0-64.4-18.6-76.7-43l34.3-19.8c9,14.7,20.8,25.6,41.5,25.6c17.4,0,28.6-8.7,28.6-20.8
		c0-14.4-11.4-19.5-30.7-28l-10.5-4.5c-30.4-12.9-50.5-29.2-50.5-63.5c0-31.6,24.1-55.6,61.6-55.6c26.8,0,46,9.3,59.8,33.7l-32.8,21
		c-7.2-12.9-15-18-27.1-18c-12.3,0-20.1,7.8-20.1,18c0,12.6,7.8,17.7,25.9,25.6l10.5,4.5c35.8,15.3,55.9,31,55.9,66.2
		C413.4,424.1,383.6,444.9,343.7,444.9L343.7,444.9z"/>
</g>
</svg>
