<?xml version="1.0" encoding="UTF-8"?>
<svg xmlns="http://www.w3.org/2000/svg" xmlns:xlink="http://www.w3.org/1999/xlink" viewBox="0 0 32 32" width="32px" height="32px">
<g id="surface6106010">
<path style=" stroke:none;fill-rule:nonzero;fill:rgb(100%,100%,100%);fill-opacity:1;" d="M 16 3 C 8.832031 3 3 8.832031 3 16 C 3 23.167969 8.832031 29 16 29 C 23.167969 29 29 23.167969 29 16 C 29 8.832031 23.167969 3 16 3 Z M 16 5 C 22.085938 5 27 9.914062 27 16 C 27 22.085938 22.085938 27 16 27 C 9.914062 27 5 22.085938 5 16 C 5 9.914062 9.914062 5 16 5 Z M 18.589844 7.382812 L 18.382812 11 L 15.929688 11 L 12.582031 7.679688 C 9.910156 8.769531 7.878906 11.121094 7.230469 13.992188 L 14.8125 13.992188 L 17 16.332031 L 17 24.9375 C 20.179688 24.589844 22.859375 22.589844 24.160156 19.800781 L 21 16.429688 L 21 13.992188 L 24.769531 13.992188 C 24.050781 10.832031 21.667969 8.300781 18.589844 7.382812 Z M 17.636719 12.507812 C 18.085938 12.449219 18.6875 12.707031 19.15625 13.203125 C 19.78125 13.867188 19.9375 14.703125 19.507812 15.074219 C 19.078125 15.445312 18.222656 15.210938 17.59375 14.546875 C 16.972656 13.882812 16.8125 13.046875 17.242188 12.675781 C 17.351562 12.582031 17.484375 12.527344 17.636719 12.507812 Z M 17.636719 12.507812 "/>
</g>
</svg>
