<?xml version="1.0" encoding="UTF-8"?>
<svg xmlns="http://www.w3.org/2000/svg" xmlns:xlink="http://www.w3.org/1999/xlink" viewBox="0 0 250 250" width="250px" height="250px">
<g id="surface6111268">
<path style=" stroke:none;fill-rule:nonzero;fill:rgb(100%,100%,100%);fill-opacity:1;" d="M 125 10 C 61.546875 10 10 61.546875 10 125 C 10 188.453125 61.546875 240 125 240 C 188.453125 240 240 188.453125 240 125 C 240 61.546875 188.453125 10 125 10 Z M 125 20 C 183.050781 20 230 66.949219 230 125 C 230 183.050781 183.050781 230 125 230 C 66.949219 230 20 183.050781 20 125 C 20 66.949219 66.949219 20 125 20 Z M 155.027344 35.109375 C 153.085938 34.890625 151.113281 35.363281 149.421875 36.484375 C 147.160156 37.984375 145.722656 40.484375 145.566406 43.183594 L 144.03125 70 L 128.015625 70 C 126.996094 70 126.03125 69.601562 125.300781 68.878906 L 96.746094 40.625 C 93.792969 37.695312 89.292969 36.878906 85.574219 38.59375 C 60.960938 49.84375 42.261719 71.117188 34.285156 96.964844 C 33.347656 100.019531 33.914062 103.378906 35.808594 105.949219 C 37.710938 108.523438 40.644531 110 43.847656 110 L 108.789062 110 C 110.167969 110 111.492188 110.578125 112.433594 111.582031 L 135 135.722656 L 135 207.511719 C 135 210.589844 136.386719 213.441406 138.808594 215.34375 C 140.613281 216.761719 142.800781 217.511719 145.039062 217.511719 C 145.847656 217.511719 146.660156 217.410156 147.46875 217.21875 C 173.605469 210.871094 195.910156 193.589844 208.671875 169.804688 C 211.03125 165.410156 210.28125 159.945312 206.804688 156.210938 L 181.335938 128.847656 C 180.472656 127.921875 180 126.710938 180 125.441406 L 180 110 L 206.679688 110 C 209.75 110 212.554688 108.589844 214.382812 106.121094 C 216.210938 103.65625 216.773438 100.441406 215.878906 97.5 C 207.207031 68.796875 185.171875 45.640625 156.953125 35.558594 C 156.320312 35.332031 155.675781 35.179688 155.027344 35.109375 Z M 140.273438 87.558594 C 145.109375 87.996094 150.769531 90.90625 155.371094 95.78125 C 162.730469 103.585938 164.589844 113.453125 159.523438 117.8125 C 154.453125 122.175781 144.371094 119.382812 137.011719 111.582031 C 129.652344 103.78125 127.792969 93.925781 132.863281 89.5625 C 134.761719 87.921875 137.371094 87.296875 140.273438 87.558594 Z M 140.273438 87.558594 "/>
</g>
</svg>
